<svg width="20" height="20" viewBox="0 0 20 20" fill="none" xmlns="http://www.w3.org/2000/svg">
<g clip-path="url(#clip0_0_1496)">
<path fill-rule="evenodd" clip-rule="evenodd" d="M19.892 18.6967L14.0821 12.8867C15.1841 11.5258 15.8474 9.79636 15.8474 7.91352C15.8474 3.54772 12.296 -0.00332 7.93084 -0.00332C3.56548 -0.00332 0.01404 3.54772 0.01404 7.91352C0.01404 12.2785 3.56548 15.8299 7.93084 15.8299C9.81372 15.8299 11.5433 15.1666 12.9039 14.0651L18.7136 19.8747C18.8763 20.0379 19.1401 20.0379 19.3029 19.8747L19.892 19.2855C20.0548 19.1228 20.0548 18.8594 19.892 18.6967ZM7.93084 14.1634C4.48422 14.1634 1.68076 11.3602 1.68076 7.91352C1.68076 4.4672 4.48422 1.66326 7.93084 1.66326C11.3772 1.66326 14.1808 4.4672 14.1808 7.91352C14.1808 11.3602 11.3772 14.1634 7.93084 14.1634Z" fill="#29282D"/>
</g>
<defs>
<clipPath id="clip0_0_1496">
<rect width="20" height="20" fill="white"/>
</clipPath>
</defs>
</svg>
