<svg width="20" height="20" viewBox="0 0 20 20" fill="none" xmlns="http://www.w3.org/2000/svg">
<g clip-path="url(#clip0_0_1489)">
<path fill-rule="evenodd" clip-rule="evenodd" d="M19.7783 4.58882C19.0969 2.16952 17.0956 0.72606 15.6054 0.2178C13.902 -0.37706 11.8581 0.2178 10.0272 1.82918C8.1961 0.25968 6.1522 -0.2925 4.44896 0.25968C2.9586 0.81144 0.95738 2.25408 0.276 4.6307C-0.19242 6.20102 -0.23498 8.7476 2.23476 11.8455C3.34186 13.2459 5.0452 15.2411 6.4503 16.811C9.13304 19.8252 9.55876 19.9936 9.9419 19.9936C9.98458 19.9936 9.98458 19.9936 10.0272 19.9936H10.0697H10.1123C10.4956 19.9936 10.8788 19.8252 13.5614 16.7691C14.9667 15.1557 16.6699 13.1605 17.777 11.8029C20.2467 8.70572 20.2467 6.15874 19.7783 4.58882ZM16.4996 10.7843C14.5407 13.2459 11.1769 17.1083 10.0272 18.1695C8.87748 17.1083 5.5135 13.2459 3.55472 10.7843C1.93664 8.7903 1.34052 6.83778 1.8515 5.0975C2.36248 3.31534 3.85284 2.25408 4.95994 1.87268C6.19476 1.4055 7.85552 2.04184 9.38846 3.52798C9.68648 3.8244 10.1123 3.8667 10.4529 3.65404C10.5381 3.61216 10.6233 3.56986 10.6657 3.48448C12.1987 2.04184 13.8596 1.4055 15.0944 1.82918C16.2015 2.25408 17.6917 3.31534 18.2027 5.0975C18.7137 6.79508 18.1176 8.7903 16.4996 10.7843Z" fill="#29282D"/>
</g>
<defs>
<clipPath id="clip0_0_1489">
<rect width="20" height="20" fill="white"/>
</clipPath>
</defs>
</svg>
