<svg width="22" height="20" viewBox="0 0 22 20" fill="none" xmlns="http://www.w3.org/2000/svg">
<g clip-path="url(#clip0_0_1477)">
<path fill-rule="evenodd" clip-rule="evenodd" d="M17.4356 19.9972C15.9228 19.9972 14.692 18.7756 14.692 17.273C14.692 15.7707 15.9228 14.5484 17.4356 14.5484C18.9485 14.5484 20.1792 15.7707 20.1792 17.273C20.1792 18.7756 18.9485 19.9972 17.4356 19.9972ZM17.4356 16.1831C16.8304 16.1831 16.3382 16.6721 16.3382 17.273C16.3382 17.8735 16.8304 18.3632 17.4356 18.3632C18.0409 18.3632 18.5331 17.8735 18.5331 17.273C18.5331 16.6721 18.0409 16.1831 17.4356 16.1831ZM19.1916 13.3768H6.3789C5.99804 13.3768 5.66696 13.1178 5.57828 12.7493L2.90321 1.63386H0.836748C0.382074 1.63386 0.013574 1.26856 0.013574 0.81668C0.013574 0.3652 0.382074 -0.0005 0.836748 -0.0005H3.55289C3.93375 -0.0005 4.26483 0.25928 4.35351 0.62658L5.0943 3.70438H21.1944C21.4476 3.70438 21.6866 3.82038 21.8425 4.01812C21.9983 4.21668 22.054 4.47484 21.9933 4.7185L19.9905 12.7562C19.8996 13.1202 19.5699 13.3768 19.1916 13.3768ZM7.02858 11.7416H18.5476L20.1427 5.33994H5.48775L7.02858 11.7416ZM7.47628 19.9972C5.96347 19.9972 4.73266 18.7756 4.73266 17.273C4.73266 15.7707 5.96347 14.5484 7.47628 14.5484C8.98918 14.5484 10.2199 15.7707 10.2199 17.273C10.2199 18.7756 8.98918 19.9972 7.47628 19.9972ZM7.47628 16.1831C6.87111 16.1831 6.3789 16.6721 6.3789 17.273C6.3789 17.8735 6.87111 18.3632 7.47628 18.3632C8.08155 18.3632 8.57375 17.8735 8.57375 17.273C8.57375 16.6721 8.08155 16.1831 7.47628 16.1831Z" fill="#29282D"/>
</g>
<defs>
<clipPath id="clip0_0_1477">
<rect width="22" height="20" fill="white"/>
</clipPath>
</defs>
</svg>
