<?xml version="1.0" encoding="UTF-8"?>
<svg xmlns="http://www.w3.org/2000/svg" xmlns:xlink="http://www.w3.org/1999/xlink" width="18px" height="18px" viewBox="0 0 18 18" version="1.1">
<g id="surface1">
<path style=" stroke:none;fill-rule:nonzero;fill:rgb(0%,0%,0%);fill-opacity:1;" d="M 18 9.191406 C 18 13.890625 14.425781 17.234375 9.148438 17.234375 C 4.085938 17.234375 0 13.554688 0 9 C 0 4.445312 4.085938 0.765625 9.148438 0.765625 C 11.609375 0.765625 13.6875 1.578125 15.28125 2.921875 L 12.792969 5.074219 C 9.535156 2.246094 3.476562 4.371094 3.476562 9 C 3.476562 11.871094 6.027344 14.199219 9.148438 14.199219 C 12.769531 14.199219 14.128906 11.863281 14.339844 10.648438 L 9.148438 10.648438 L 9.148438 7.816406 L 17.855469 7.816406 C 17.941406 8.238281 18 8.644531 18 9.191406 Z M 18 9.191406 "/>
</g>
</svg>
