<?xml version="1.0" encoding="UTF-8"?>
<svg xmlns="http://www.w3.org/2000/svg" xmlns:xlink="http://www.w3.org/1999/xlink" width="15px" height="18px" viewBox="0 0 15 18" version="1.1">
<g id="surface1">
<path style=" stroke:none;fill-rule:nonzero;fill:rgb(0%,0%,0%);fill-opacity:1;" d="M 7.96875 0.226562 C 3.960938 0.226562 0 2.632812 0 6.523438 C 0 9 1.546875 10.40625 2.484375 10.40625 C 2.871094 10.40625 3.09375 9.4375 3.09375 9.160156 C 3.09375 8.835938 2.167969 8.140625 2.167969 6.777344 C 2.167969 3.953125 4.558594 1.949219 7.652344 1.949219 C 10.3125 1.949219 12.28125 3.308594 12.28125 5.808594 C 12.28125 7.675781 11.449219 11.175781 8.753906 11.175781 C 7.78125 11.175781 6.949219 10.542969 6.949219 9.636719 C 6.949219 8.308594 7.980469 7.019531 7.980469 5.648438 C 7.980469 3.320312 4.3125 3.742188 4.3125 6.554688 C 4.3125 7.148438 4.394531 7.800781 4.6875 8.339844 C 4.148438 10.425781 3.046875 13.539062 3.046875 15.691406 C 3.046875 16.355469 3.152344 17.007812 3.222656 17.671875 C 3.355469 17.804688 3.289062 17.792969 3.492188 17.726562 C 5.460938 15.300781 5.390625 14.824219 6.28125 11.652344 C 6.761719 12.472656 8.003906 12.917969 8.988281 12.917969 C 13.136719 12.917969 15 9.277344 15 5.996094 C 15 2.507812 11.648438 0.226562 7.96875 0.226562 Z M 7.96875 0.226562 "/>
</g>
</svg>
